<?xml version="1.0" encoding="UTF-8"?>
<svg version="1.1" xmlns="http://www.w3.org/2000/svg" width="395" height="163">
<path d="M0 0 C6.17736757 1.79782698 11.16704778 2.23963784 17.4375 0.4375 C21.93496424 -0.7955326 25.99047212 -0.68718416 30.5 0.5 C33.0625 2 33.0625 2 34.5 4.5 C36.1086301 11.21923368 33.51047013 16.62253294 30.3671875 22.48046875 C27.47523887 27.15719739 24.10866903 31.36010558 20.5 35.5 C26.89628979 35.62068471 33.13849395 35.15486092 39.5 34.5 C39.17 35.82 38.84 37.14 38.5 38.5 C35.86 38.83 33.22 39.16 30.5 39.5 C30.17 44.45 29.84 49.4 29.5 54.5 C28.18 54.83 26.86 55.16 25.5 55.5 C25.17 55.17 24.84 54.84 24.5 54.5 C24.59017996 52.30949979 24.74666208 50.121534 24.9375 47.9375 C25.03933594 46.73996094 25.14117187 45.54242188 25.24609375 44.30859375 C25.32988281 43.38175781 25.41367188 42.45492187 25.5 41.5 C24.55125 41.520625 23.6025 41.54125 22.625 41.5625 C19.5 41.5 19.5 41.5 17.5 40.5 C17.36722656 41.17546875 17.23445313 41.8509375 17.09765625 42.546875 C16.92105469 43.43890625 16.74445313 44.3309375 16.5625 45.25 C16.38847656 46.13171875 16.21445313 47.0134375 16.03515625 47.921875 C15.57631512 50.13235053 15.06663926 52.31512068 14.5 54.5 C13.18 54.5 11.86 54.5 10.5 54.5 C9.5 53.5 9.5 53.5 9.40234375 51.65234375 C9.43489583 49.6015625 9.46744792 47.55078125 9.5 45.5 C8.91734375 45.93570313 8.3346875 46.37140625 7.734375 46.8203125 C-2.96250274 54.59068595 -14.79069955 61.81820197 -28.5 60.5 C-32.0386994 58.84860695 -33.31070153 57.78394771 -35.5 54.5 C-36.24963148 48.253071 -34.25285698 43.92832441 -31.5 38.5 C-31.17 37.84 -30.84 37.18 -30.5 36.5 C-31.16 36.5 -31.82 36.5 -32.5 36.5 C-34.078125 34.5234375 -34.078125 34.5234375 -35.75 31.875 C-36.31203125 31.01648438 -36.8740625 30.15796875 -37.453125 29.2734375 C-38.5 26.5 -38.5 26.5 -37.92578125 23.6015625 C-32.89717039 12.66261175 -27.19432334 4.33887815 -15.9609375 -0.62109375 C-10.38764804 -2.61155427 -5.50369922 -1.60842179 0 0 Z " fill="#0D0B11" transform="translate(73.5,46.5)"/>
<path d="M0 0 C2 2 2 2 2 4.625 C-1.51030941 16.47229426 -14.18577557 25.43489891 -24 32 C-27.87061799 33.8134667 -30.71209859 34.28586009 -35 34 C-37.77237284 32.61381358 -37.84378882 31.13057338 -38.875 28.25 C-40.09538733 25.01092685 -40.97222173 23.03240798 -43.25 20.375 C-45.41861146 17.43188445 -45.7192519 15.52231098 -45.49609375 11.91796875 C-44.79361632 9.20209143 -43.28225659 7.72660622 -41.015625 6.1484375 C-28.51303019 -0.97513396 -13.46353011 -8.20946958 0 0 Z " fill="#FAFAFA" transform="translate(86,57)"/>
<path d="M0 0 C0.99 0.495 0.99 0.495 2 1 C1.67 3.31 1.34 5.62 1 8 C4.3 7.34 7.6 6.68 11 6 C12 9 12 9 11.375 11 C11.189375 11.99 11.189375 11.99 11 13 C11.495 13.495 11.99 13.99 12.5 14.5 C12.995 14.995 13.49 15.49 14 16 C13.8448287 18.48274086 13.15643214 19.7731734 11.75 21.8125 C10 23 10 23 7.3125 22.6875 C6.549375 22.460625 5.78625 22.23375 5 22 C6 19 6 19 8 17 C7.505 16.54625 7.01 16.0925 6.5 15.625 C5 14 5 14 5 12 C3.35 12 1.7 12 0 12 C0 14.97 0 17.94 0 21 C-1.32 21.66 -2.64 22.32 -4 23 C-4.99 22.01 -4.99 22.01 -6 21 C-5.96712417 18.27130593 -5.43602229 15.7033382 -5 13 C-7.475 12.505 -7.475 12.505 -10 12 C-11.65 15.3 -13.3 18.6 -15 22 C-16.32 21.67 -17.64 21.34 -19 21 C-19.33 19.35 -19.66 17.7 -20 16 C-20.556875 16.474375 -21.11375 16.94875 -21.6875 17.4375 C-24.30115184 19.20348097 -25.85942646 19.77567332 -29 20 C-29.94875 19.649375 -30.8975 19.29875 -31.875 18.9375 C-35.90278074 17.72916578 -38.06127298 18.71096207 -42 20 C-44.9375 20.125 -44.9375 20.125 -47 20 C-47.12375 21.134375 -47.2475 22.26875 -47.375 23.4375 C-47.684375 25.2009375 -47.684375 25.2009375 -48 27 C-48.66 27.33 -49.32 27.66 -50 28 C-50.66 27.67 -51.32 27.34 -52 27 C-52.59355614 24.35139573 -52.74209269 21.70802678 -53 19 C-53.66 19.33 -54.32 19.66 -55 20 C-56.99954746 20.04254356 -59.00041636 20.04080783 -61 20 C-61.99 20 -62.98 20 -64 20 C-64.33 20.99 -64.66 21.98 -65 23 C-66.65 22.67 -68.3 22.34 -70 22 C-68.125 17.25 -68.125 17.25 -67 15 C-67.33 14.01 -67.66 13.02 -68 12 C-68.33 11.01 -68.66 10.02 -69 9 C-68.67 8.34 -68.34 7.68 -68 7 C-66.68 7 -65.36 7 -64 7 C-63.34 8.32 -62.68 9.64 -62 11 C-61.34 9.68 -60.68 8.36 -60 7 C-58.68 7.33 -57.36 7.66 -56 8 C-56.62759865 10.92879371 -57.58622659 13.36095629 -59 16 C-56.54368999 15.50452457 -56.54368999 15.50452457 -54 14 C-52.65223022 11.72037377 -51.88635784 9.51912228 -51 7 C-49.68 7 -48.36 7 -47 7 C-46.67 7.66 -46.34 8.32 -46 9 C-45.608125 8.505 -45.21625 8.01 -44.8125 7.5 C-43 6 -43 6 -40.4375 5.6875 C-38 6 -38 6 -36 8 C-36.375 11.125 -36.375 11.125 -37 14 C-33.76838133 12.25056085 -33.76838133 12.25056085 -32.75 8.9375 C-31.88375 7.4834375 -31.88375 7.4834375 -31 6 C-27.3125 5.125 -27.3125 5.125 -24 5 C-23.1875 7.1875 -23.1875 7.1875 -23 10 C-25.4375 12.8125 -25.4375 12.8125 -28 15 C-27.2575 14.690625 -26.515 14.38125 -25.75 14.0625 C-23.49307824 13.1905075 -21.3549847 12.52332993 -19 12 C-18.67 10.68 -18.34 9.36 -18 8 C-17.195625 8.020625 -16.39125 8.04125 -15.5625 8.0625 C-13.06645115 8.29633621 -13.06645115 8.29633621 -12 7 C-10.33382885 6.95936168 -8.66611905 6.957279 -7 7 C-7 7.66 -7 8.32 -7 9 C-3.35996939 6.57331293 -3.28839527 5.03697185 -2 1 C-1.34 0.67 -0.68 0.34 0 0 Z M-42 10 C-43.32 11.65 -44.64 13.3 -46 15 C-45.01 15.33 -44.02 15.66 -43 16 C-42.01 14.35 -41.02 12.7 -40 11 C-40.66 10.67 -41.32 10.34 -42 10 Z " fill="#F8F3FA" transform="translate(247,81)"/>
<path d="M0 0 C0.680625 -0.01417969 1.36125 -0.02835938 2.0625 -0.04296875 C4 0.1875 4 0.1875 7 2.1875 C8.02064497 8.53817984 6.3766038 12.263225 2.9296875 17.58203125 C-0.66903089 22.44102956 -4.72589538 26.91339538 -9 31.1875 C-8.34 31.5175 -7.68 31.8475 -7 32.1875 C-7.33 38.1275 -7.66 44.0675 -8 50.1875 C-9.32 50.8475 -10.64 51.5075 -12 52.1875 C-14 50.1875 -14 50.1875 -14.01171875 47.83984375 C-13.90472656 46.94394531 -13.79773438 46.04804687 -13.6875 45.125 C-13.58824219 44.22652344 -13.48898438 43.32804687 -13.38671875 42.40234375 C-13 40.1875 -13 40.1875 -12 39.1875 C-11.95936168 37.52132885 -11.957279 35.85361905 -12 34.1875 C-12.58265625 34.68378906 -13.1653125 35.18007812 -13.765625 35.69140625 C-24.22186565 44.35561824 -37.67639589 54.31208049 -52 53.1875 C-55 51.1875 -55 51.1875 -55.3984375 49.19921875 C-55.34958624 44.35480232 -55.08211708 41.1685679 -52 37.1875 C-51.34 37.5175 -50.68 37.8475 -50 38.1875 C-49.375 41.25 -49.375 41.25 -49 44.1875 C-37.56100695 44.91378527 -29.79738519 40.21712176 -21 33.1875 C-13.04861322 26.04515735 -5.50705616 18.66657838 -4.75 7.5 C-4.73811257 4.04894644 -4.73811257 4.04894644 -7 1.1875 C-4.35559361 0.3060312 -2.71939248 0.02575182 0 0 Z " fill="#F0EEF2" transform="translate(97,49.8125)"/>
<path d="M0 0 C1.32 0.33 2.64 0.66 4 1 C4 8.26 4 15.52 4 23 C2.35 23.33 0.7 23.66 -1 24 C-2.26237731 21.47524538 -2.09856404 19.68799534 -2.0625 16.875 C-2.05347656 15.96492188 -2.04445312 15.05484375 -2.03515625 14.1171875 C-2.02355469 13.41851562 -2.01195312 12.71984375 -2 12 C-3.98 14.31 -5.96 16.62 -8 19 C-12.5 16.75 -12.5 16.75 -14 13 C-14.07476562 13.62648438 -14.14953125 14.25296875 -14.2265625 14.8984375 C-14.62897451 17.39970429 -15.08510917 19.63509352 -16 22 C-18.95519089 23.67032528 -20.76979352 24.03618254 -24.125 23.9375 C-26 23 -26 23 -27.75 20.4375 C-29.68680915 17.83618031 -29.68680915 17.83618031 -32.03125 17.671875 C-34.02378804 17.68590696 -36.01429543 17.83452462 -38 18 C-38.66 19.32 -39.32 20.64 -40 22 C-41.32 22 -42.64 22 -44 22 C-43.49400845 16.89047749 -40.9693761 13.34638487 -38.1875 9.1875 C-37.74857422 8.49462891 -37.30964844 7.80175781 -36.85742188 7.08789062 C-36.20676758 6.1065918 -36.20676758 6.1065918 -35.54296875 5.10546875 C-35.15133545 4.50887451 -34.75970215 3.91228027 -34.35620117 3.29760742 C-33 2 -33 2 -29 2 C-28.57847656 3.14339844 -28.15695313 4.28679687 -27.72265625 5.46484375 C-27.16941479 6.95578259 -26.61602153 8.44666511 -26.0625 9.9375 C-25.64581055 11.06961914 -25.64581055 11.06961914 -25.22070312 12.22460938 C-24.08246549 15.88779139 -24.08246549 15.88779139 -22 19 C-21.67386719 17.85660156 -21.34773438 16.71320313 -21.01171875 15.53515625 C-20.57096014 14.04407924 -20.12951844 12.55320403 -19.6875 11.0625 C-19.47416016 10.30775391 -19.26082031 9.55300781 -19.04101562 8.77539062 C-18.45350149 6.81993314 -17.73435295 4.90518046 -17 3 C-16.01 2.67 -15.02 2.34 -14 2 C-9.83643728 4.77570848 -9.58406354 7.32324099 -8 12 C-5.36 8.04 -2.72 4.08 0 0 Z M-33 10 C-33.66 11.32 -34.32 12.64 -35 14 C-33.68 13.67 -32.36 13.34 -31 13 C-31 12.01 -31 11.02 -31 10 C-31.66 10 -32.32 10 -33 10 Z " fill="#F7F2FA" transform="translate(150,79)"/>
<path d="M0 0 C0.5 2.5625 0.5 2.5625 0 6 C-7.51616613 15.77101596 -22.13803547 22.19952324 -34 24 C-39.08512798 24.4842979 -41.92078692 24.14682152 -46 21 C-48.46943529 17.29584707 -48.46913089 15.37855495 -48 11 C-45.9765625 9.28125 -45.9765625 9.28125 -44 8 C-43.95101562 8.71027344 -43.90203125 9.42054687 -43.8515625 10.15234375 C-43.77679688 11.07144531 -43.70203125 11.99054688 -43.625 12.9375 C-43.55539063 13.85402344 -43.48578125 14.77054688 -43.4140625 15.71484375 C-43.27742188 16.46894531 -43.14078125 17.22304687 -43 18 C-38.27687576 20.36156212 -31.61827323 18.05689991 -26.8125 16.5 C-18.38089894 13.25799001 -10.52770824 8.03591598 -3.64453125 2.21484375 C-1 0 -1 0 0 0 Z " fill="#0F0C12" transform="translate(86,83)"/>
<path d="M0 0 C1.26328125 0.01804687 2.5265625 0.03609375 3.828125 0.0546875 C4.79234375 0.07789062 5.7565625 0.10109375 6.75 0.125 C6.42 1.445 6.09 2.765 5.75 4.125 C2.75519083 4.9973412 0.11424089 5.23329766 -3 5.1875 C-3.79921875 5.17847656 -4.5984375 5.16945313 -5.421875 5.16015625 C-6.02515625 5.14855469 -6.6284375 5.13695313 -7.25 5.125 C-7.25 6.115 -7.25 7.105 -7.25 8.125 C-3.95 7.795 -0.65 7.465 2.75 7.125 C3.08 8.115 3.41 9.105 3.75 10.125 C-3.06553398 12.09101942 -3.06553398 12.09101942 -5.625 12.5625 C-6.429375 12.8409375 -6.429375 12.8409375 -7.25 13.125 C-7.58 14.115 -7.91 15.105 -8.25 16.125 C-7.26 15.795 -6.27 15.465 -5.25 15.125 C-3.35529184 15.0564505 -1.4583166 15.04019628 0.4375 15.0625 C1.43136719 15.07152344 2.42523438 15.08054687 3.44921875 15.08984375 C4.58810547 15.10724609 4.58810547 15.10724609 5.75 15.125 C5.42 16.445 5.09 17.765 4.75 19.125 C1.93820232 19.4857927 -0.87418499 19.8389278 -3.6875 20.1875 C-4.48994141 20.29126953 -5.29238281 20.39503906 -6.11914062 20.50195312 C-8.15807868 20.75144343 -10.20395061 20.94280318 -12.25 21.125 C-12.58 20.795 -12.91 20.465 -13.25 20.125 C-13.10984287 16.44268988 -12.64368718 12.78778576 -12.25 9.125 C-12.19972656 8.39410156 -12.14945313 7.66320312 -12.09765625 6.91015625 C-11.9375 5.0625 -11.9375 5.0625 -11.25 2.125 C-7.76665805 -0.4511325 -4.1905675 -0.0776031 0 0 Z " fill="#F8F2FB" transform="translate(170.25,80.875)"/>
<path d="M0 0 C0.680625 -0.01417969 1.36125 -0.02835938 2.0625 -0.04296875 C4 0.1875 4 0.1875 7 2.1875 C8.04820318 8.70965312 6.20627937 12.4556109 2.66796875 17.91015625 C0.6463703 20.67032463 -1.43790767 22.9268303 -4 25.1875 C-6.31 24.5275 -8.62 23.8675 -11 23.1875 C-10.65066406 22.57261719 -10.30132812 21.95773438 -9.94140625 21.32421875 C-9.25884766 20.11185547 -9.25884766 20.11185547 -8.5625 18.875 C-8.11003906 18.07449219 -7.65757813 17.27398437 -7.19140625 16.44921875 C-4.97641094 12.24435881 -4.74766561 8.89774201 -5 4.1875 C-5.66 3.1975 -6.32 2.2075 -7 1.1875 C-4.35559361 0.3060312 -2.71939248 0.02575182 0 0 Z " fill="#D9D9D9" transform="translate(97,49.8125)"/>
<path d="M0 0 C-0.66 3.3 -1.32 6.6 -2 10 C-5.12639695 9.91332169 -8.24981121 9.80649067 -11.375 9.6875 C-12.26445313 9.66494141 -13.15390625 9.64238281 -14.0703125 9.61914062 C-14.92109375 9.58369141 -15.771875 9.54824219 -16.6484375 9.51171875 C-17.43395996 9.48553467 -18.21948242 9.45935059 -19.02880859 9.43237305 C-21 9 -21 9 -23 6 C-23 4.68 -23 3.36 -23 2 C-24.32 1.67 -25.64 1.34 -27 1 C-17.31572921 -2.48753492 -9.60324189 -4.64672995 0 0 Z " fill="#D0D0CE" transform="translate(85,56)"/>
<path d="M0 0 C0.66 0.33 1.32 0.66 2 1 C2.625 4.0625 2.625 4.0625 3 7 C10.19618704 7.45690076 14.62746659 6.22940765 21 3 C22.66194738 2.32165413 24.32598903 1.64800425 26 1 C24.68124824 4.95625528 23.08077896 7.20804407 20 10 C19.34 10.66 18.68 11.32 18 12 C16.10949035 12.77544857 14.18705739 13.47449565 12.25 14.125 C11.22390625 14.47820312 10.1978125 14.83140625 9.140625 15.1953125 C5.90480196 16.02439154 3.32355686 16.28779403 0 16 C-3 14 -3 14 -3.3984375 12.01171875 C-3.34958624 7.16730232 -3.08211708 3.9810679 0 0 Z " fill="#DCDCDC" transform="translate(45,87)"/>
<path d="M0 0 C-0.33 1.32 -0.66 2.64 -1 4 C-3.64 4.33 -6.28 4.66 -9 5 C-9.33 9.95 -9.66 14.9 -10 20 C-11.32 20.33 -12.64 20.66 -14 21 C-14.33 20.67 -14.66 20.34 -15 20 C-14.90982004 17.80949979 -14.75333792 15.621534 -14.5625 13.4375 C-14.46066406 12.23996094 -14.35882813 11.04242188 -14.25390625 9.80859375 C-14.17011719 8.88175781 -14.08632812 7.95492187 -14 7 C-14.94875 7.020625 -15.8975 7.04125 -16.875 7.0625 C-20 7 -20 7 -22 6 C-21.67 4.68 -21.34 3.36 -21 2 C-18.43795456 1.66280953 -15.87545682 1.33012847 -13.3125 1 C-12.59126953 0.90460938 -11.87003906 0.80921875 -11.12695312 0.7109375 C-7.39007129 0.23316265 -3.77708469 -0.11919794 0 0 Z " fill="#F7F1FA" transform="translate(113,81)"/>
<path d="M0 0 C0.680625 -0.01417969 1.36125 -0.02835938 2.0625 -0.04296875 C4 0.1875 4 0.1875 7 2.1875 C7.1875 5.3125 7.1875 5.3125 7 8.1875 C6.34 7.5275 5.68 6.8675 5 6.1875 C2.41645782 6.02062552 2.41645782 6.02062552 0 6.1875 C-1.06017824 9.07549056 -1.06017824 9.07549056 -1.375 11.75 C-2 14.1875 -2 14.1875 -5 16.1875 C-4.97679688 15.35605469 -4.95359375 14.52460937 -4.9296875 13.66796875 C-4.91164063 12.58128906 -4.89359375 11.49460937 -4.875 10.375 C-4.85179688 9.29605469 -4.82859375 8.21710937 -4.8046875 7.10546875 C-4.76976283 3.99347132 -4.76976283 3.99347132 -7 1.1875 C-4.35559361 0.3060312 -2.71939248 0.02575182 0 0 Z " fill="#DEDFDF" transform="translate(97,49.8125)"/>
<path d="M0 0 C0.66 0.33 1.32 0.66 2 1 C2.32613618 5.67461851 1.70582788 8.16674383 -1 12 C5.40353322 12.2361959 10.84629161 11.823321 17 10 C17 10.66 17 11.32 17 12 C5.06000649 16.75900097 5.06000649 16.75900097 0 16 C-3 14 -3 14 -3.3984375 12.01171875 C-3.34958624 7.16730232 -3.08211708 3.9810679 0 0 Z " fill="#E6E6E6" transform="translate(45,87)"/>
<path d="M0 0 C0.66 0.33 1.32 0.66 2 1 C0.515 2.485 0.515 2.485 -1 4 C-0.01 4.33 0.98 4.66 2 5 C2 6.32 2 7.64 2 9 C2.66 9 3.32 9 4 9 C4 10.65 4 12.3 4 14 C2.35 14.66 0.7 15.32 -1 16 C-3.52625679 13.47374321 -4.27493616 11.48536865 -4.4375 8 C-4.33556507 4.78605163 -4.11000521 4.13750651 -2 1.5 C-1.34 1.005 -0.68 0.51 0 0 Z " fill="#DEDEDE" transform="translate(45,63)"/>
<path d="M0 0 C1.8871875 0.0309375 1.8871875 0.0309375 3.8125 0.0625 C2.12275688 3.44198625 -1.71781672 4.21441618 -5.0625 5.625 C-5.79597656 5.94146484 -6.52945313 6.25792969 -7.28515625 6.58398438 C-10.23567525 7.84964416 -13.13937418 9.04645806 -16.1875 10.0625 C-14.69064027 5.57192081 -11.08454176 3.3972533 -7.1875 1.0625 C-4.43671116 0.14557039 -2.82801087 -0.04636083 0 0 Z " fill="#D9D9D6" transform="translate(63.1875,49.9375)"/>
<path d="M0 0 C0.66 0.33 1.32 0.66 2 1 C2 2.98 2 4.96 2 7 C1.360625 7.268125 0.72125 7.53625 0.0625 7.8125 C-2.33131686 8.88667752 -2.33131686 8.88667752 -3 12 C-3.2954439 6.97745369 -2.98514628 4.10457614 0 0 Z " fill="#F4F4F4" transform="translate(45,87)"/>
<path d="M0 0 C0.66 0.66 1.32 1.32 2 2 C4.48460007 2.28220867 6.88304373 2.46574791 9.375 2.5625 C17.55345436 2.93068712 17.55345436 2.93068712 21 4 C21 4.66 21 5.32 21 6 C15.25 6.125 15.25 6.125 13 5 C10.795636 4.77049681 8.58607827 4.58924067 6.375 4.4375 C5.18648438 4.35371094 3.99796875 4.26992187 2.7734375 4.18359375 C1.40058594 4.09271484 1.40058594 4.09271484 0 4 C0 2.68 0 1.36 0 0 Z " fill="#E8E8E8" transform="translate(62,62)"/>
<path d="M0 0 C1.32 0.66 2.64 1.32 4 2 C3.25 7.75 3.25 7.75 1 10 C0.34 9.67 -0.32 9.34 -1 9 C-0.67 6.03 -0.34 3.06 0 0 Z " fill="#E9E9E7" transform="translate(84,57)"/>
<path d="M0 0 C0.33 0.99 0.66 1.98 1 3 C-0.40445835 5.2636564 -2.1967913 7.0208685 -4 9 C-6.64 8.34 -9.28 7.68 -12 7 C-10.68 5.68 -9.36 4.36 -8 3 C-7.67 3.99 -7.34 4.98 -7 6 C-3.63279613 4.60667426 -2.0140476 3.0210714 0 0 Z " fill="#E1E1E1" transform="translate(98,66)"/>
<path d="M0 0 C-0.33 0.33 -0.66 0.66 -1 1 C-1.36760731 3.32817964 -1.70241581 5.6618385 -2 8 C-3.5 6.75 -3.5 6.75 -5 5 C-5 3.68 -5 2.36 -5 1 C-6.32 0.67 -7.64 0.34 -9 0 C-5.62182575 -0.84454356 -3.32534757 -1.10844919 0 0 Z " fill="#DADADA" transform="translate(67,57)"/>
<path d="M0 0 C1.8871875 0.0309375 1.8871875 0.0309375 3.8125 0.0625 C2.8125 2.0625 2.8125 2.0625 0.125 3.25 C-3.42340538 4.12036358 -5.66702545 3.90070823 -9.1875 3.0625 C-6.30623588 0.18123588 -3.90053134 -0.06394314 0 0 Z " fill="#D2D2CD" transform="translate(63.1875,49.9375)"/>
<path d="M0 0 C0.66 0.33 1.32 0.66 2 1 C0.515 2.485 0.515 2.485 -1 4 C-0.01 4.66 0.98 5.32 2 6 C0.02 7.32 -1.96 8.64 -4 10 C-4.25 7.25 -4.25 7.25 -4 4 C-2 1.625 -2 1.625 0 0 Z " fill="#EDEDED" transform="translate(45,63)"/>
<path d="M0 0 C0.66 0.33 1.32 0.66 2 1 C2 1.66 2 2.32 2 3 C-1.3 4.32 -4.6 5.64 -8 7 C-8 6.01 -8 5.02 -8 4 C-6.71349294 3.30289269 -5.42059335 2.61757124 -4.125 1.9375 C-3.40570313 1.55464844 -2.68640625 1.17179687 -1.9453125 0.77734375 C-1.30335937 0.52082031 -0.66140625 0.26429687 0 0 Z " fill="#191918" transform="translate(56,55)"/>
<path d="M0 0 C0.33 0 0.66 0 1 0 C1.25 2.25 1.25 2.25 1 5 C-0.875 7.3125 -0.875 7.3125 -3 9 C-3.66 9 -4.32 9 -5 9 C-4.67 7.35 -4.34 5.7 -4 4 C-2.68 3.67 -1.36 3.34 0 3 C0 2.01 0 1.02 0 0 Z " fill="#F4E4F8" transform="translate(228,90)"/>
<path d="M0 0 C0.66 0.66 1.32 1.32 2 2 C1.8125 4.5 1.8125 4.5 1 7 C0.01 7.66 -0.98 8.32 -2 9 C-1.125 2.25 -1.125 2.25 0 0 Z " fill="#EFEFEF" transform="translate(94,57)"/>
<path d="M0 0 C1.99954746 -0.04254356 4.00041636 -0.04080783 6 0 C7 1 7 1 7.0625 4.0625 C7.041875 5.031875 7.02125 6.00125 7 7 C6.6596875 6.071875 6.6596875 6.071875 6.3125 5.125 C4.62070165 2.38589791 3.00755839 1.94975528 0 1 C0 0.67 0 0.34 0 0 Z " fill="#F5F5F5" transform="translate(97,51)"/>
<path d="M0 0 C0.33 0 0.66 0 1 0 C1 1.65 1 3.3 1 5 C-0.65 5.66 -2.3 6.32 -4 7 C-4.33 5.68 -4.66 4.36 -5 3 C-2.525 3.495 -2.525 3.495 0 4 C0 2.68 0 1.36 0 0 Z " fill="#E9E9E9" transform="translate(48,72)"/>
</svg>
